<svg width="95" height="24" viewBox="0 0 95 24" fill="none" xmlns="http://www.w3.org/2000/svg">
<path d="M8.252 23.252C7.076 23.252 6.2 23.048 5.624 22.64C5.072 22.208 4.796 21.536 4.796 20.624C4.796 20.48 4.796 20.336 4.796 20.192C4.82 20.048 4.844 19.904 4.868 19.76C4.94 19.208 5.108 18.488 5.372 17.6C5.636 16.688 5.984 15.68 6.416 14.576C5.936 14.552 5.444 14.528 4.94 14.504C4.436 14.456 4.028 14.396 3.716 14.324C3.404 14.252 3.26 14.168 3.284 14.072C3.644 13.016 4.028 12.284 4.436 11.876C4.844 11.444 5.348 11.228 5.948 11.228C6.308 11.228 6.68 11.276 7.064 11.372C7.16 11.396 7.256 11.42 7.352 11.444C7.448 11.468 7.556 11.492 7.676 11.516C8.084 10.652 8.504 9.788 8.936 8.924C9.392 8.06 9.872 7.232 10.376 6.44C10.472 6.32 10.64 6.056 10.88 5.648C11.12 5.24 11.348 4.808 11.564 4.352C11.804 3.896 11.924 3.548 11.924 3.308C11.924 3.068 11.768 2.996 11.456 3.092C11.048 3.236 10.568 3.548 10.016 4.028C9.464 4.508 8.864 5.06 8.216 5.684C7.568 6.308 6.884 6.92 6.164 7.52C5.468 8.096 4.748 8.588 4.004 8.996C3.284 9.38 2.576 9.572 1.88 9.572C1.712 9.572 1.532 9.56 1.34 9.536C1.172 9.512 0.992 9.464 0.8 9.392C0.392 9.248 0.188 8.888 0.188 8.312C0.188 7.76 0.344 7.112 0.656 6.368C0.992 5.6 1.4 4.868 1.88 4.172C2 4.028 2.216 3.956 2.528 3.956C2.84 3.956 2.96 4.028 2.888 4.172C2.768 4.388 2.708 4.556 2.708 4.676C2.708 4.748 2.732 4.784 2.78 4.784C2.852 4.784 2.9 4.808 2.924 4.856C3.116 4.976 3.332 5.036 3.572 5.036C4.076 5.036 4.724 4.868 5.516 4.532C6.332 4.196 7.208 3.788 8.144 3.308C9.104 2.804 10.052 2.312 10.988 1.832C11.948 1.352 12.836 0.979999 13.652 0.715999C14.468 0.427999 15.14 0.331999 15.668 0.427999C16.076 0.523999 16.436 0.811999 16.748 1.292C17.084 1.772 17.3 2.192 17.396 2.552C17.468 2.768 17.504 2.996 17.504 3.236C17.504 3.452 17.456 3.68 17.36 3.92C17.288 4.136 17.156 4.376 16.964 4.64C15.98 5.936 15.056 7.22 14.192 8.492C13.328 9.74 12.548 10.964 11.852 12.164C11.996 12.188 12.128 12.212 12.248 12.236C12.368 12.236 12.452 12.224 12.5 12.2C13.124 12.176 13.532 12.128 13.724 12.056C13.94 11.984 14.06 11.936 14.084 11.912C13.412 13.28 12.248 14.144 10.592 14.504C9.824 15.968 9.224 17.324 8.792 18.572C8.36 19.796 8.144 20.816 8.144 21.632C8.144 22.232 8.276 22.688 8.54 23C8.588 23.096 8.612 23.144 8.612 23.144C8.612 23.216 8.492 23.252 8.252 23.252ZM16.9899 23.216C15.8139 23.216 14.9859 22.952 14.5059 22.424C14.0499 21.872 13.8219 21.188 13.8219 20.372C13.8219 19.508 13.9779 18.584 14.2899 17.6C14.6259 16.592 14.9979 15.668 15.4059 14.828C15.8379 13.964 16.1739 13.304 16.4139 12.848C17.3979 11.024 18.5259 9.692 19.7979 8.852C21.0939 8.012 22.5219 7.592 24.0819 7.592C24.6339 7.592 25.2819 7.616 26.0259 7.664C26.7699 7.712 27.5259 7.736 28.2939 7.736C28.6779 7.736 29.0499 7.724 29.4099 7.7C29.7699 7.676 30.1179 7.664 30.4539 7.664H30.5979C31.0059 7.664 31.2099 7.736 31.2099 7.88C31.2099 7.976 31.0659 8.084 30.7779 8.204C30.4659 8.324 30.0939 8.732 29.6619 9.428C29.2299 10.1 28.7859 10.916 28.3299 11.876C27.8739 12.836 27.4419 13.808 27.0339 14.792C26.8179 15.344 26.5299 16.088 26.1699 17.024C25.8099 17.936 25.5459 18.872 25.3779 19.832C25.3539 20 25.3299 20.156 25.3059 20.3C25.3059 20.42 25.3059 20.54 25.3059 20.66C25.3059 21.26 25.4619 21.56 25.7739 21.56C26.1579 21.56 26.5539 21.356 26.9619 20.948C27.3699 20.54 27.7659 20.048 28.1499 19.472C28.4859 18.968 28.8219 18.404 29.1579 17.78C29.4939 17.156 29.7939 16.58 30.0579 16.052C30.3219 15.5 30.5139 15.116 30.6339 14.9C30.7059 14.756 30.8019 14.684 30.9219 14.684C31.0659 14.684 31.1979 14.792 31.3179 15.008C31.4379 15.2 31.4499 15.392 31.3539 15.584C30.8979 16.472 30.4059 17.42 29.8779 18.428C29.3499 19.436 28.7739 20.348 28.1499 21.164C27.0939 22.532 25.8699 23.216 24.4779 23.216C23.4219 23.216 22.6419 22.892 22.1379 22.244C21.6579 21.596 21.4179 20.816 21.4179 19.904C21.4179 19.496 21.4539 19.1 21.5259 18.716C21.2619 19.148 20.9379 19.712 20.5539 20.408C20.1699 21.08 19.7259 21.692 19.2219 22.244C18.7419 22.796 18.2019 23.108 17.6019 23.18C17.5059 23.18 17.4099 23.18 17.3139 23.18C17.2179 23.204 17.1099 23.216 16.9899 23.216ZM18.3219 21.38C18.5619 21.38 18.8739 21.164 19.2579 20.732C19.6659 20.3 20.0739 19.76 20.4819 19.112C20.9139 18.44 21.2859 17.768 21.5979 17.096C21.6699 16.904 21.8379 16.496 22.1019 15.872C22.3899 15.224 22.7019 14.48 23.0379 13.64C23.3979 12.776 23.7579 11.912 24.1179 11.048C24.4779 10.184 24.7899 9.428 25.0539 8.78C25.0779 8.708 25.0899 8.624 25.0899 8.528C25.0899 8.384 25.0179 8.312 24.8739 8.312C24.7299 8.312 24.5619 8.372 24.3699 8.492C24.1779 8.588 23.9979 8.696 23.8299 8.816C23.5179 9.056 23.1099 9.56 22.6059 10.328C22.1259 11.072 21.6099 11.948 21.0579 12.956C20.5299 13.964 20.0259 14.996 19.5459 16.052C19.0659 17.084 18.6699 18.032 18.3579 18.896C18.0699 19.736 17.9259 20.372 17.9259 20.804C17.9259 21.188 18.0579 21.38 18.3219 21.38ZM33.6885 23.252C32.2245 23.252 31.0125 22.82 30.0525 21.956C29.0925 21.092 28.6125 19.892 28.6125 18.356C28.6125 17.828 28.6725 17.276 28.7925 16.7C28.9125 16.124 29.1045 15.632 29.3685 15.224C29.6325 14.816 29.9805 14.612 30.4125 14.612C30.6765 14.612 30.8685 14.696 30.9885 14.864C31.2765 14.312 31.5885 13.76 31.9245 13.208C32.2605 12.656 32.5965 12.092 32.9325 11.516C33.3165 10.892 33.7605 10.208 34.2645 9.464C34.7925 8.696 35.3925 8.024 36.0645 7.448C36.7365 6.848 37.4685 6.512 38.2605 6.44C38.3565 6.416 38.4525 6.404 38.5485 6.404C38.6685 6.404 38.7765 6.404 38.8725 6.404C39.1365 6.404 39.4125 6.416 39.7005 6.44C39.9885 6.464 40.2045 6.488 40.3485 6.512C40.3965 6.536 40.4325 6.608 40.4565 6.728C40.4805 6.848 40.4205 6.908 40.2765 6.908C40.1805 6.908 39.9885 6.98 39.7005 7.124C39.4125 7.244 39.2445 7.544 39.1965 8.024C39.1485 9.704 39.0405 11.384 38.8725 13.064C38.7285 14.744 38.5005 16.148 38.1885 17.276C38.0445 17.852 37.8165 18.476 37.5045 19.148C37.1925 19.82 36.8205 20.42 36.3885 20.948C35.9565 21.476 35.5005 21.836 35.0205 22.028C35.5005 22.028 36.0045 21.884 36.5325 21.596C37.0845 21.284 37.5885 20.912 38.0445 20.48C38.5245 20.048 38.8845 19.664 39.1245 19.328C39.6525 18.584 40.1325 17.804 40.5645 16.988C41.0205 16.148 41.3565 15.5 41.5725 15.044C41.6445 14.924 41.7285 14.864 41.8245 14.864C41.9445 14.864 42.0525 14.936 42.1485 15.08C42.2445 15.224 42.2925 15.38 42.2925 15.548C42.2925 15.596 42.2805 15.644 42.2565 15.692C42.2565 15.74 42.2445 15.788 42.2205 15.836C41.7885 16.7 41.3085 17.576 40.7805 18.464C40.2765 19.328 39.6885 20.132 39.0165 20.876C38.3445 21.596 37.5765 22.172 36.7125 22.604C35.8485 23.036 34.8405 23.252 33.6885 23.252ZM31.3485 20.984C31.6125 20.984 31.8765 20.9 32.1405 20.732C32.4045 20.564 32.6205 20.3 32.7885 19.94C33.1485 19.148 33.4725 18.236 33.7605 17.204C34.0485 16.172 34.3005 15.152 34.5165 14.144C34.7325 13.112 34.9125 12.2 35.0565 11.408C35.2245 10.592 35.3445 10.004 35.4165 9.644C35.0565 10.076 34.6125 10.688 34.0845 11.48C33.5805 12.272 33.0885 13.064 32.6085 13.856C32.1525 14.648 31.8045 15.284 31.5645 15.764C31.5885 16.316 31.3725 16.808 30.9165 17.24C30.4605 17.672 30.0645 18.116 29.7285 18.572V18.968C29.7285 19.064 29.7285 19.184 29.7285 19.328C29.7525 19.472 29.7765 19.604 29.8005 19.724C29.9205 20.108 30.1245 20.42 30.4125 20.66C30.7245 20.876 31.0365 20.984 31.3485 20.984ZM43.9004 23.216C43.5644 23.216 43.2404 23.18 42.9284 23.108C42.6404 23.06 42.2924 22.952 41.8844 22.784C41.3564 22.568 40.9724 22.196 40.7324 21.668C40.4924 21.116 40.3724 20.468 40.3724 19.724C40.3724 18.836 40.5164 17.852 40.8044 16.772C41.1164 15.692 41.5124 14.6 41.9924 13.496C42.5444 12.272 43.1684 10.988 43.8644 9.644C44.5844 8.3 45.3644 7.076 46.2044 5.972C47.0684 4.868 47.9684 4.076 48.9044 3.596C49.1684 3.452 49.4684 3.356 49.8044 3.308C50.1404 3.236 50.4764 3.2 50.8124 3.2C51.4604 3.2 52.0724 3.296 52.6484 3.488C52.8644 3.56 52.9724 3.656 52.9724 3.776C52.9724 3.848 52.9004 3.944 52.7564 4.064C52.5884 4.184 52.0484 4.748 51.1364 5.756C50.2484 6.74 49.2524 8.204 48.1484 10.148C48.0284 10.364 47.8604 10.664 47.6444 11.048C47.4524 11.408 47.2484 11.78 47.0324 12.164C46.8404 12.548 46.6724 12.884 46.5284 13.172C46.3844 13.436 46.3124 13.568 46.3124 13.568C46.9364 12.656 47.5844 11.792 48.2564 10.976C48.9524 10.16 49.5764 9.452 50.1284 8.852C50.6804 8.228 51.0644 7.808 51.2804 7.592C51.4724 7.448 51.7844 7.376 52.2164 7.376C52.7204 7.376 53.2364 7.532 53.7644 7.844C54.2924 8.156 54.5564 8.72 54.5564 9.536C54.5564 10.016 54.4244 10.592 54.1604 11.264C53.8964 11.936 53.5964 12.608 53.2604 13.28C52.9244 13.928 52.6484 14.492 52.4324 14.972C52.3844 15.092 52.2524 15.38 52.0364 15.836C51.8204 16.292 51.5924 16.82 51.3524 17.42C51.1124 18.02 50.8964 18.62 50.7044 19.22C50.5364 19.796 50.4524 20.276 50.4524 20.66C50.4524 21.14 50.6084 21.38 50.9204 21.38C51.1364 21.38 51.4004 21.248 51.7124 20.984C52.0244 20.696 52.3124 20.396 52.5764 20.084C52.8644 19.748 53.0684 19.496 53.1884 19.328C53.6924 18.632 54.1484 17.888 54.5564 17.096C54.9884 16.304 55.3364 15.644 55.6004 15.116C55.6964 14.948 55.8164 14.864 55.9604 14.864C56.1284 14.864 56.2724 14.936 56.3924 15.08C56.5124 15.224 56.5244 15.392 56.4284 15.584C56.0444 16.352 55.5644 17.228 54.9884 18.212C54.4364 19.172 53.8484 20.048 53.2244 20.84C52.7444 21.44 52.1924 21.98 51.5684 22.46C50.9444 22.916 50.2844 23.144 49.5884 23.144C48.5804 23.144 47.8724 22.832 47.4644 22.208C47.0804 21.584 46.8884 20.768 46.8884 19.76C46.8884 18.968 46.9964 18.176 47.2124 17.384C47.4524 16.592 47.7164 15.8 48.0044 15.008C48.3164 14.144 48.6164 13.364 48.9044 12.668C49.2164 11.972 49.4564 11.504 49.6244 11.264C49.1204 11.624 48.5444 12.188 47.8964 12.956C47.2724 13.7 46.6724 14.564 46.0964 15.548C45.5204 16.532 45.0404 17.528 44.6564 18.536C44.2724 19.544 44.0804 20.48 44.0804 21.344C44.0804 21.944 44.2124 22.4 44.4764 22.712C44.5484 22.784 44.5844 22.856 44.5844 22.928C44.5844 23.12 44.3564 23.216 43.9004 23.216ZM57.8189 23.288C56.9549 23.288 56.1749 23.048 55.4789 22.568C54.7829 22.064 54.4349 21.248 54.4349 20.12C54.4349 19.376 54.5549 18.512 54.7949 17.528C55.0589 16.544 55.3829 15.536 55.7669 14.504C56.1509 13.448 56.5469 12.476 56.9549 11.588C57.3869 10.676 57.7709 9.932 58.1069 9.356C58.6349 8.516 59.2229 8 59.8709 7.808C60.5429 7.616 61.3589 7.52 62.3189 7.52C63.0149 7.52 63.5909 7.604 64.0469 7.772C64.5029 7.916 64.5749 8.084 64.2629 8.276C63.8069 8.588 63.2189 9.284 62.4989 10.364C61.7789 11.444 61.0829 12.656 60.4109 14C60.2189 14.384 59.9789 14.9 59.6909 15.548C59.4029 16.172 59.1149 16.844 58.8269 17.564C58.5629 18.26 58.3349 18.932 58.1429 19.58C57.9509 20.204 57.8549 20.72 57.8549 21.128C57.8549 21.728 58.1309 22.028 58.6829 22.028C59.2589 22.028 59.9069 21.752 60.6269 21.2C60.9629 20.936 61.2749 20.636 61.5629 20.3C61.8509 19.964 62.1149 19.628 62.3549 19.292C62.8349 18.644 63.2669 17.948 63.6509 17.204C64.0589 16.436 64.4309 15.716 64.7669 15.044C64.8389 14.9 64.9349 14.828 65.0549 14.828C65.2229 14.828 65.3669 14.912 65.4869 15.08C65.6069 15.248 65.6189 15.428 65.5229 15.62C65.1629 16.34 64.7189 17.192 64.1909 18.176C63.6629 19.136 63.0509 20.024 62.3549 20.84C61.7549 21.536 61.0709 22.124 60.3029 22.604C59.5589 23.06 58.7309 23.288 57.8189 23.288ZM62.9669 5.72C62.5589 5.72 62.2349 5.588 61.9949 5.324C61.7549 5.036 61.6349 4.664 61.6349 4.208C61.6349 3.656 61.7789 3.152 62.0669 2.696C62.3549 2.24 62.7149 1.868 63.1469 1.58C63.5789 1.292 64.0229 1.148 64.4789 1.148C64.8869 1.148 65.2109 1.292 65.4509 1.58C65.6909 1.844 65.8109 2.18 65.8109 2.588C65.8109 3.116 65.6669 3.62 65.3789 4.1C65.0909 4.58 64.7309 4.976 64.2989 5.288C63.8669 5.576 63.4229 5.72 62.9669 5.72ZM68.6876 23.252C67.1516 23.252 65.9516 23 65.0876 22.496C64.2236 21.992 63.7916 21.02 63.7916 19.58C63.7916 18.572 63.9476 17.516 64.2596 16.412C64.5956 15.284 65.0636 14.192 65.6636 13.136C66.2636 12.08 66.9716 11.12 67.7876 10.256C68.6036 9.392 69.5036 8.708 70.4876 8.204C71.4716 7.676 72.5156 7.412 73.6196 7.412C74.3396 7.412 75.0236 7.472 75.6716 7.592C76.3196 7.712 76.8476 7.988 77.2556 8.42C77.6636 8.828 77.8676 9.476 77.8676 10.364C77.8676 11.3 77.6156 12.512 77.1116 14C76.6076 15.488 75.9236 16.94 75.0596 18.356C75.0116 18.548 74.9876 18.74 74.9876 18.932C74.9876 19.196 75.0356 19.46 75.1316 19.724C75.2516 19.988 75.4556 20.12 75.7436 20.12C76.1276 20.12 76.5236 19.856 76.9316 19.328C77.3636 18.728 77.8076 18.008 78.2636 17.168C78.7196 16.328 79.0676 15.644 79.3076 15.116C79.3556 14.972 79.4636 14.9 79.6316 14.9C79.7996 14.9 79.9436 14.972 80.0636 15.116C80.2076 15.26 80.2196 15.428 80.0996 15.62C79.9076 15.98 79.6556 16.484 79.3436 17.132C79.0316 17.756 78.6716 18.392 78.2636 19.04C77.8556 19.688 77.4116 20.204 76.9316 20.588C76.5716 20.876 76.1876 21.02 75.7796 21.02C75.2996 21.02 74.9396 20.912 74.6996 20.696C74.4596 20.456 74.2676 20.12 74.1236 19.688C73.3556 20.72 72.5036 21.572 71.5676 22.244C70.6316 22.916 69.6716 23.252 68.6876 23.252ZM68.0036 22.136C68.2676 22.136 68.6276 21.788 69.0836 21.092C69.5396 20.396 70.0316 19.508 70.5596 18.428C71.0876 17.324 71.6036 16.208 72.1076 15.08C72.2036 14.888 72.3596 14.54 72.5756 14.036C72.7916 13.508 73.0196 12.932 73.2596 12.308C73.4996 11.66 73.7036 11.036 73.8716 10.436C74.0396 9.836 74.1236 9.356 74.1236 8.996C74.1236 8.588 74.0036 8.384 73.7636 8.384C73.5476 8.384 73.2716 8.6 72.9356 9.032C72.5996 9.44 72.2276 9.98 71.8196 10.652C71.4116 11.324 71.0156 12.044 70.6316 12.812C70.2476 13.58 69.9116 14.3 69.6236 14.972C69.3356 15.644 69.0356 16.4 68.7236 17.24C68.4116 18.08 68.1476 18.884 67.9316 19.652C67.7396 20.396 67.6436 20.996 67.6436 21.452C67.6436 21.908 67.7636 22.136 68.0036 22.136ZM87.7054 23.288C86.4814 23.288 85.6534 22.952 85.2214 22.28C84.7894 21.608 84.5734 20.828 84.5734 19.94C84.5734 19.292 84.6454 18.644 84.7894 17.996C84.9334 17.348 85.0894 16.772 85.2574 16.268C85.4254 15.764 85.5454 15.416 85.6174 15.224C85.9054 14.36 86.2054 13.532 86.5174 12.74C86.8534 11.924 87.1054 11.36 87.2734 11.048C87.2014 11.168 86.9374 11.516 86.4814 12.092C86.0254 12.668 85.4854 13.388 84.8614 14.252C84.2614 15.092 83.6614 15.992 83.0614 16.952C82.4614 17.888 81.9574 18.8 81.5494 19.688C81.1654 20.552 80.9734 21.296 80.9734 21.92C80.9734 22.352 81.0694 22.664 81.2614 22.856C81.3334 22.928 81.3694 22.988 81.3694 23.036C81.3694 23.156 81.2374 23.192 80.9734 23.144C80.4214 23.048 79.8814 22.952 79.3534 22.856C78.8254 22.736 78.3814 22.508 78.0214 22.172C77.6854 21.812 77.5174 21.224 77.5174 20.408C77.5174 19.76 77.6854 18.98 78.0214 18.068C78.3574 17.132 78.7534 16.172 79.2094 15.188C79.6654 14.204 80.0614 13.292 80.3974 12.452C80.4694 12.26 80.5894 11.972 80.7574 11.588C80.9254 11.18 81.0934 10.76 81.2614 10.328C81.4534 9.872 81.5974 9.476 81.6934 9.14C81.7894 8.78 81.8134 8.54 81.7654 8.42C81.7174 8.324 81.6934 8.252 81.6934 8.204C81.6934 7.916 81.8854 7.772 82.2694 7.772C82.6534 7.772 83.0374 7.832 83.4214 7.952C83.8294 8.048 84.1894 8.216 84.5014 8.456C84.8374 8.696 85.1014 8.984 85.2934 9.32C85.4854 9.656 85.5814 10.028 85.5814 10.436C85.5814 10.7 85.5214 11.012 85.4014 11.372C85.3534 11.54 85.2454 11.768 85.0774 12.056C84.9334 12.32 84.7774 12.608 84.6094 12.92C84.4414 13.232 84.2614 13.556 84.0694 13.892C83.9014 14.228 83.8414 14.408 83.8894 14.432C84.4894 13.376 85.1374 12.392 85.8334 11.48C86.5534 10.544 87.2014 9.74 87.7774 9.068C88.3774 8.396 88.7734 7.904 88.9654 7.592C89.1574 7.448 89.4694 7.376 89.9014 7.376C90.4054 7.376 90.9214 7.532 91.4494 7.844C91.9774 8.156 92.2414 8.72 92.2414 9.536C92.2414 10.208 92.0014 11.024 91.5214 11.984C90.4894 13.952 89.6974 15.728 89.1454 17.312C88.5934 18.872 88.3174 20.024 88.3174 20.768C88.3174 21.296 88.4614 21.56 88.7494 21.56C89.0854 21.56 89.4694 21.344 89.9014 20.912C90.3334 20.48 90.7414 19.964 91.1254 19.364C91.6534 18.596 92.1334 17.78 92.5654 16.916C93.0214 16.052 93.3334 15.452 93.5014 15.116C93.5734 14.972 93.6814 14.9 93.8254 14.9C93.9694 14.9 94.1014 14.984 94.2214 15.152C94.3654 15.296 94.3894 15.464 94.2934 15.656C94.1254 15.992 93.8734 16.46 93.5374 17.06C93.2254 17.66 92.8654 18.308 92.4574 19.004C92.0494 19.676 91.6054 20.324 91.1254 20.948C90.5974 21.668 90.0694 22.244 89.5414 22.676C89.0134 23.084 88.4014 23.288 87.7054 23.288Z" fill="black"/>
</svg>
